<svg width="16" height="12" viewBox="0 0 16 12" fill="none" xmlns="http://www.w3.org/2000/svg">
<path d="M15.1972 9.8999H9.46737C9.40858 9.61169 9.26634 9.34704 9.0582 9.13907C8.85021 8.93094 8.58557 8.7887 8.29737 8.7299V5.02499L8.39634 5.09999H13.3973C13.4768 5.09999 13.5531 5.06838 13.6094 5.01213C13.6656 4.95588 13.6973 4.87954 13.6973 4.79999V0.599988C13.6973 0.520435 13.6656 0.444094 13.6094 0.387845C13.5531 0.331596 13.4768 0.299988 13.3973 0.299988H0.797254C0.684352 0.30039 0.581094 0.36414 0.5302 0.464988C0.484799 0.562623 0.495112 0.677131 0.557253 0.764988L0.875198 1.20001C0.460273 1.79733 0.38409 2.56687 0.673636 3.23411C0.963323 3.90134 1.57751 4.37116 2.29724 4.47604V4.80001C2.29724 4.87957 2.32884 4.95591 2.38509 5.01216C2.44134 5.0684 2.51768 5.10001 2.59724 5.10001H7.69724V8.73018C7.34152 8.80291 7.02438 9.00206 6.80433 9.29082C6.58442 9.57957 6.47661 9.93838 6.50098 10.3005C6.52536 10.6628 6.68032 11.0038 6.93693 11.2605C7.19367 11.5171 7.53466 11.6721 7.89693 11.6964C8.25905 11.7208 8.61785 11.613 8.90661 11.3931C9.19536 11.1731 9.39449 10.8559 9.46725 10.5002H15.1971C15.3627 10.5002 15.4971 10.3659 15.4971 10.2002C15.4971 10.0345 15.3627 9.90019 15.1971 9.90019L15.1972 9.8999ZM2.2972 3.86973C1.95836 3.80062 1.65393 3.61647 1.43522 3.34862C1.21651 3.08077 1.09705 2.74554 1.09718 2.39973C1.09839 2.16455 1.15598 1.933 1.26513 1.72471L2.2972 3.09868V3.86973Z" fill="black"/>
</svg>
