<svg width="18" height="10" viewBox="0 0 18 10" fill="none" xmlns="http://www.w3.org/2000/svg">
<path d="M13.0819 7.14198C11.9048 7.14198 10.9482 6.18539 10.9482 5.00826C10.9482 3.83113 11.9048 2.87454 13.0819 2.87454C14.259 2.87454 15.2156 3.83107 15.2157 5.00815L13.0819 7.14198ZM13.0819 7.14198C14.2589 7.14198 15.2158 6.18552 15.2157 5.00826L13.0819 7.14198ZM13.0819 1.12415H13.1345C15.2516 1.15223 16.966 2.884 16.966 5.00754C16.966 7.14875 15.2231 8.89161 13.0819 8.89161C11.1656 8.89161 9.56742 7.49406 9.25487 5.66367L9.1602 5.10921H8.59772H1.13646C1.08056 5.10921 1.0352 5.06383 1.0352 5.00795C1.0352 4.95205 1.08058 4.90668 1.13646 4.90668H1.13647L8.59773 4.90655L9.1602 4.90654L9.25487 4.35209C9.56741 2.52173 11.1657 1.12415 13.0819 1.12415Z" fill="#975D00" stroke="#975D00" stroke-width="1.33333"/>
</svg>
