<svg width="32" height="34" viewBox="0 0 32 34" fill="none" xmlns="http://www.w3.org/2000/svg">
<path d="M12.59 0.683346C14.8382 0.211902 17.1597 0.210767 19.4083 0.680012C19.5581 1.66882 19.9289 2.61116 20.493 3.43698C21.0571 4.26279 21.8 4.95085 22.6667 5.45001C23.5326 5.9509 24.5003 6.25012 25.4978 6.32543C26.4953 6.40074 27.497 6.25021 28.4283 5.88501C29.9588 7.59845 31.1181 9.61008 31.8333 11.7933C31.0522 12.4176 30.4219 13.2099 29.989 14.1113C29.5562 15.0127 29.3321 16.0001 29.3333 17C29.3333 19.1067 30.31 20.985 31.8367 22.2067C31.1172 24.3881 29.9565 26.3982 28.4267 28.1117C27.4956 27.7467 26.4942 27.5963 25.497 27.6717C24.4998 27.747 23.5324 28.0461 22.6667 28.5467C21.8008 29.0457 21.0584 29.7333 20.4946 30.5585C19.9308 31.3837 19.5601 32.3253 19.41 33.3133C17.162 33.7859 14.8406 33.7882 12.5917 33.32C12.4426 32.3303 12.0722 31.387 11.508 30.5603C10.9439 29.7335 10.2005 29.0447 9.33333 28.545C8.46727 28.0444 7.4995 27.7455 6.50198 27.6704C5.50446 27.5954 4.50286 27.7462 3.57166 28.1117C2.04099 26.3978 0.881672 24.3855 0.166664 22.2017C0.947318 21.5777 1.57743 20.786 2.01022 19.8852C2.44302 18.9844 2.66738 17.9977 2.66666 16.9983C2.66748 15.9981 2.44284 15.0106 2.00944 14.1092C1.57604 13.2078 0.945036 12.4156 0.16333 11.7917C0.882778 9.61022 2.04353 7.60018 3.57333 5.88668C4.50442 6.25161 5.50578 6.40201 6.50299 6.3267C7.5002 6.25139 8.46761 5.95231 9.33333 5.45168C10.1992 4.95267 10.9416 4.26505 11.5054 3.43986C12.0692 2.61466 12.4399 1.67308 12.59 0.685012V0.683346ZM16 22C17.3261 22 18.5978 21.4732 19.5355 20.5355C20.4732 19.5979 21 18.3261 21 17C21 15.6739 20.4732 14.4022 19.5355 13.4645C18.5978 12.5268 17.3261 12 16 12C14.6739 12 13.4021 12.5268 12.4645 13.4645C11.5268 14.4022 11 15.6739 11 17C11 18.3261 11.5268 19.5979 12.4645 20.5355C13.4021 21.4732 14.6739 22 16 22Z" fill="#B1B1B1"/>
</svg>
