<svg width="16" height="20" viewBox="0 0 16 20" fill="none" xmlns="http://www.w3.org/2000/svg">
<path fill-rule="evenodd" clip-rule="evenodd" d="M7.43596 18.7013C7.76101 18.844 8.05993 18.9776 8.32016 19.1086C8.56672 19.2326 8.86753 19.1333 8.99154 18.8867C9.11556 18.6401 9.01618 18.3393 8.76962 18.2153C8.49533 18.0772 8.18032 17.936 7.83773 17.7856C7.58501 17.6747 7.28985 17.7898 7.17893 18.0424C7.06804 18.2952 7.18322 18.5903 7.43581 18.7012L7.43596 18.7013ZM4.68481 17.3761C4.98722 17.5512 5.29232 17.7124 5.59417 17.8627C5.84126 17.9856 6.14167 17.8848 6.26449 17.6377C6.38743 17.3906 6.28658 17.0902 6.03949 16.9674C5.75596 16.8263 5.46962 16.675 5.1857 16.5107C4.94691 16.3725 4.64073 16.4542 4.50253 16.693C4.36431 16.9317 4.44601 17.2379 4.6848 17.3761L4.68481 17.3761ZM2.22158 15.4097C2.45609 15.681 2.70854 15.9325 2.97412 16.1664C3.18118 16.3488 3.49739 16.3287 3.67979 16.1216C3.8622 15.9146 3.84211 15.5984 3.63506 15.416C3.40336 15.2119 3.18279 14.9926 2.97814 14.7558C2.79774 14.547 2.48169 14.524 2.27289 14.7045C2.06409 14.8849 2.04106 15.201 2.22159 15.4098L2.22158 15.4097ZM0.765126 12.5476C0.848296 12.9122 0.957716 13.2552 1.08977 13.5783C1.1941 13.8337 1.48632 13.9564 1.74175 13.8521C1.99715 13.7477 2.11982 13.4555 2.0155 13.2001C1.9034 12.9258 1.81059 12.6346 1.74014 12.3252C1.6788 12.0562 1.41054 11.8876 1.14148 11.9489C0.872417 12.0102 0.703789 12.2785 0.765126 12.5476V12.5476ZM0.803832 9.32047C0.701643 9.65074 0.632002 10.0125 0.600795 10.4104C0.579232 10.6855 0.784947 10.9264 1.06005 10.948C1.33514 10.9695 1.57609 10.7638 1.59765 10.4887C1.6227 10.1704 1.67721 9.88056 1.75904 9.61618C1.8406 9.35261 1.69287 9.07231 1.4293 8.99074C1.16573 8.90918 0.885428 9.0569 0.803862 9.32048L0.803832 9.32047ZM2.9242 6.80273C2.59755 6.98929 2.29622 7.19914 2.02581 7.43794C1.81902 7.62062 1.79933 7.93683 1.98202 8.14375C2.16469 8.35053 2.48091 8.37022 2.68782 8.18754C2.908 7.99308 3.15428 7.82298 3.42027 7.67113C3.65987 7.53425 3.7433 7.22864 3.60643 6.98891C3.46955 6.74931 3.16394 6.66588 2.92421 6.80275L2.9242 6.80273ZM5.84345 5.70679C5.51118 5.79732 5.18332 5.89121 4.86405 5.99219C4.60101 6.07549 4.45502 6.35675 4.53833 6.61979C4.62164 6.88283 4.90289 7.02882 5.16594 6.9455C5.4725 6.84841 5.78736 6.75841 6.10653 6.67149C6.37278 6.5989 6.53003 6.32379 6.45741 6.05757C6.38482 5.79132 6.10972 5.63407 5.84349 5.70669L5.84345 5.70679ZM8.70576 4.90844C8.40068 5.01023 8.08807 5.10358 7.77203 5.19237C7.50631 5.26697 7.35134 5.54339 7.42595 5.80897C7.50068 6.07468 7.77696 6.22965 8.04254 6.15505C8.37415 6.06183 8.70199 5.9638 9.02208 5.85706C9.28391 5.76973 9.42549 5.48636 9.33816 5.22452C9.25083 4.96269 8.96746 4.82111 8.70562 4.90844H8.70576ZM11.1663 3.61899C10.9433 3.81774 10.6977 3.99291 10.4348 4.15001C10.1979 4.29157 10.1205 4.59881 10.262 4.83573C10.4036 5.07265 10.7108 5.15006 10.9477 5.00849C11.2657 4.81858 11.5621 4.60591 11.8318 4.36564C12.0378 4.18202 12.056 3.86568 11.8724 3.65969C11.6888 3.45371 11.3724 3.4355 11.1664 3.61911L11.1663 3.61899ZM13.0513 1.63443L12.2704 2.41536C12.0753 2.61049 12.0753 2.92738 12.2704 3.1225C12.4655 3.31762 12.7824 3.31764 12.9776 3.1225L13.7585 2.34158L14.5394 3.1225C14.7345 3.31764 15.0514 3.31764 15.2466 3.1225C15.4417 2.92737 15.4417 2.61048 15.2466 2.41536L14.4656 1.63443L15.2466 0.853508C15.4417 0.658375 15.4417 0.341486 15.2466 0.146366C15.0514 -0.0487682 14.7345 -0.0487682 14.5394 0.146366L13.7585 0.927291L12.9776 0.146366C12.7824 -0.0487682 12.4655 -0.0487682 12.2704 0.146366C12.0753 0.341499 12.0753 0.658388 12.2704 0.853508L13.0513 1.63443Z" fill="black"/>
</svg>
