<?xml version="1.0" standalone="no"?>
<!DOCTYPE svg PUBLIC "-//W3C//DTD SVG 1.0//EN" "http://www.w3.org/TR/2001/REC-SVG-20010904/DTD/svg10.dtd">
<svg xmlns="http://www.w3.org/2000/svg" xmlns:xlink="http://www.w3.org/1999/xlink" id="body_1" width="45" height="45">

<g transform="matrix(0.703125 0 0 0.703125 0 0)">
	<g transform="matrix(1 0 0 1 0.00630876 -0.00301984)">
        <path d="M63.033 39.744C 58.759003 56.887 41.396004 67.32 24.251 63.045C 7.112999 58.770996 -3.3199997 41.406998 0.9559994 24.265C 5.227999 7.119999 22.591 -3.314001 39.731003 0.9599991C 56.875 5.2339993 67.30701 22.599998 63.033005 39.744L63.033005 39.744L63.033 39.744z" stroke="none" fill="#F7931A" fill-rule="nonzero" />
        <path d="M46.103 27.444C 46.74 23.186 43.498 20.897 39.065002 19.369999L39.065002 19.369999L40.503002 13.601999L36.992 12.726999L35.592 18.342999C 34.669 18.112999 33.721 17.895998 32.779 17.680998L32.779 17.680998L34.189 12.027998L30.679998 11.152998L29.241 16.918999C 28.477 16.744999 27.727 16.572998 26.998999 16.391998L26.998999 16.391998L27.002998 16.373999L22.161 15.164999L21.227 18.914999C 21.227 18.914999 23.831999 19.512 23.776999 19.549C 25.199 19.904 25.456 20.845 25.412998 21.591L25.412998 21.591L23.774998 28.161999C 23.872997 28.186998 23.999998 28.223 24.139997 28.279C 24.022997 28.25 23.897997 28.217999 23.768997 28.187L23.768997 28.187L21.472998 37.392C 21.298998 37.823997 20.857998 38.472 19.863998 38.225998C 19.898998 38.276997 17.311998 37.588997 17.311998 37.588997L17.311998 37.588997L15.568998 41.607998L20.137999 42.746998C 20.987999 42.96 21.821 43.183 22.640999 43.392998L22.640999 43.392998L21.188 49.226997L24.695 50.101997L26.133999 44.329998C 27.092 44.589996 28.022 44.829998 28.932 45.056L28.932 45.056L27.498 50.801L31.008999 51.676L32.461998 45.852997C 38.448997 46.985996 42.950996 46.528996 44.845997 41.114C 46.372997 36.753998 44.769997 34.239 41.619995 32.599C 43.913994 32.07 45.641994 30.560999 46.102997 27.443998L46.102997 27.443998L46.103 27.444zM38.081 38.693C 36.996002 43.053 29.655003 40.696 27.275002 40.105L27.275002 40.105L29.203001 32.376C 31.583 32.97 39.215 34.146 38.081 38.693zM39.167 27.381C 38.177 31.347 32.067 29.332 30.085 28.838001L30.085 28.838001L31.832998 21.828001C 33.815 22.322 40.197998 23.244001 39.167 27.381z" stroke="none" fill="#FFFFFF" fill-rule="nonzero" />
	</g>
</g>
</svg>