<svg width="13" height="13" viewBox="0 0 13 13" fill="none" xmlns="http://www.w3.org/2000/svg">
<path fill-rule="evenodd" clip-rule="evenodd" d="M7.50471 0.0128923C7.45889 0.0246554 7.37947 0.0596758 7.32826 0.0907123C7.27702 0.121776 6.25029 0.868428 5.04666 1.74997L2.85821 3.35277H1.72218C0.450512 3.35277 0.39463 3.35937 0.20966 3.53097C0.1537 3.5829 0.0836387 3.67689 0.0539419 3.73983C0.000602837 3.85299 0 3.88424 0 6.50219C0 9.12013 0.000602837 9.15138 0.0539419 9.26454C0.0836387 9.32748 0.1537 9.42147 0.20966 9.4734C0.39463 9.645 0.450512 9.6516 1.72218 9.6516H2.85821L5.05274 11.2589C6.25975 12.1429 7.29958 12.8962 7.36349 12.9329C7.60486 13.0714 7.96799 12.9878 8.14195 12.7535C8.29061 12.5534 8.28262 12.9084 8.28262 6.50219C8.28262 0.096015 8.29061 0.450983 8.14195 0.250821C8.0099 0.0730272 7.70871 -0.0394364 7.50471 0.0128923ZM9.6849 4.66815C9.47 4.76866 9.32177 5.01187 9.32177 5.26396C9.32177 5.50662 9.36308 5.57131 9.82466 6.05131L10.2582 6.50219L9.82466 6.95306C9.36308 7.43306 9.32177 7.49775 9.32177 7.74041C9.32177 7.9925 9.47 8.23571 9.6849 8.33622C9.83391 8.40591 10.0879 8.40276 10.2298 8.32944C10.2911 8.29778 10.5236 8.08593 10.753 7.85272L11.1658 7.43301L11.5924 7.86819C11.8514 8.1324 12.057 8.31972 12.1158 8.34491C12.2574 8.40569 12.5138 8.39867 12.6515 8.33024C12.8723 8.22047 13.0012 7.99616 13 7.72383C12.999 7.49756 12.9262 7.38547 12.4825 6.92649L12.0722 6.50219L12.4825 6.07788C12.9262 5.6189 12.999 5.50681 13 5.28054C13.0012 5.00821 12.8723 4.7839 12.6515 4.67413C12.5138 4.6057 12.2574 4.59868 12.1158 4.65946C12.057 4.68468 11.8513 4.87208 11.592 5.13655L11.1651 5.57214L10.7526 5.15141C10.5182 4.91227 10.2925 4.70638 10.2298 4.67432C10.0877 4.60166 9.8332 4.59878 9.6849 4.66815Z" fill="white"/>
</svg>
