<svg width="13" height="13" viewBox="0 0 13 13" fill="none" xmlns="http://www.w3.org/2000/svg">
<path fill-rule="evenodd" clip-rule="evenodd" d="M7.84087 0.0485602C7.7818 0.086818 6.83996 0.847871 5.74786 1.73982L3.76226 3.36151L2.14965 3.37217C0.654624 3.38206 0.527916 3.38775 0.411735 3.45019C0.234653 3.54532 0.164515 3.61409 0.0767617 3.77875C0.000357926 3.92203 0 3.93484 0 6.46003C0 8.98523 0.000357926 8.99804 0.0767617 9.14132C0.164515 9.30598 0.234653 9.37475 0.411735 9.46988C0.527308 9.53199 0.663109 9.53862 2.15807 9.55521L3.77909 9.5732L5.81743 11.2744C7.11056 12.3536 7.89322 12.983 7.95824 12.9961C8.01624 13.0078 8.11835 12.9924 8.19371 12.9608C8.44935 12.8534 8.4317 13.3355 8.43109 6.48818C8.43069 1.66734 8.42092 0.304812 8.38633 0.23715C8.27914 0.0274697 8.01463 -0.0640178 7.84087 0.0485602ZM10.6227 3.30396L10.0799 3.85073L10.328 4.04547C11.0762 4.63277 11.5098 5.51543 11.5104 6.45255C11.511 7.31297 11.2265 8.0001 10.6098 8.62756C10.4555 8.78458 10.3292 8.92415 10.3292 8.93769C10.3292 8.97922 11.3479 9.98709 11.3899 9.98709C11.4576 9.98709 11.9922 9.40131 12.1804 9.12102C13.2737 7.49192 13.2732 5.45497 12.1791 3.81751C12.0238 3.58505 11.5915 3.11566 11.3303 2.89583L11.1655 2.7572L10.6227 3.30396Z" fill="white"/>
<path d="M10.0799 3.85073L10.6227 3.30396L11.1655 2.7572L11.3303 2.89583C11.5915 3.11566 12.0238 3.58505 12.1791 3.81751C13.2732 5.45497 13.2737 7.49192 12.1804 9.12102C11.9922 9.40131 11.4576 9.98709 11.3899 9.98709C11.3479 9.98709 10.3292 8.97922 10.3292 8.93769C10.3292 8.92415 10.4555 8.78458 10.6098 8.62756C11.2265 8.0001 11.511 7.31297 11.5104 6.45255C11.5098 5.51543 11.0762 4.63277 10.328 4.04547L10.0799 3.85073Z" fill="white"/>
</svg>
